<?xml version="1.0" encoding="UTF-8"?>
<svg version="1.1" xmlns="http://www.w3.org/2000/svg" width="1024" height="1024">
<path d="M0 0 C337.92 0 675.84 0 1024 0 C1024 337.92 1024 675.84 1024 1024 C686.08 1024 348.16 1024 0 1024 C0 686.08 0 348.16 0 0 Z " fill="#000000" transform="translate(0,0)"/>
<path d="M0 0 C0.7312207 0.31549805 1.46244141 0.63099609 2.21582031 0.95605469 C25.9471648 11.27635547 47.19299611 26.2841264 66.375 43.54248047 C67.87361828 44.8866438 69.38920737 46.21182202 70.90625 47.53515625 C76.04590617 52.04783629 80.61030178 56.76334825 85 62 C86.2475962 63.41878404 87.49758047 64.83547189 88.75 66.25 C89.84575536 67.48912522 90.92963532 68.73887726 92 70 C92.58265625 70.65484375 93.1653125 71.3096875 93.765625 71.984375 C95 74 95 74 94.83911133 75.84350586 C93.70889428 78.74813408 92.02347187 80.33113214 89.80859375 82.51953125 C88.94556641 83.37740234 88.08253906 84.23527344 87.19335938 85.11914062 C85.82920898 86.45235352 85.82920898 86.45235352 84.4375 87.8125 C83.55513672 88.68970703 82.67277344 89.56691406 81.76367188 90.47070312 C77.19044779 94.98984622 72.53848523 99.35736073 67.66430664 103.54956055 C65.67995771 105.27891613 63.82790751 107.10681008 62 109 C59.52561417 111.56275676 56.94703239 113.92697015 54.25 116.25 C49.96185672 119.97433185 45.9753994 123.94695608 42 128 C37.41139791 132.67822323 32.75168282 137.15979144 27.78564453 141.43701172 C25.56412068 143.38152849 23.49319256 145.44439552 21.4375 147.5625 C17.78309745 151.26765814 14.00395043 154.67757305 10 158 C6.61453936 156.52507019 4.3488501 154.60434215 1.6875 152.0625 C-34.61867781 118.94107463 -81.26001407 102.82655 -130 105 C-159.02710251 107.13394345 -186.483863 121.8689782 -207 142 C-207.73476563 142.71027344 -208.46953125 143.42054688 -209.2265625 144.15234375 C-235.87895602 171.69942892 -243.75186234 213.1802268 -243.27734375 250.0859375 C-242.83759619 272.29651558 -237.35526669 295.29856453 -227 315 C-226.67660645 315.62326172 -226.35321289 316.24652344 -226.02001953 316.88867188 C-218.74489386 330.79450649 -209.77372913 342.57511142 -199 354 C-198.06800781 355.01126953 -198.06800781 355.01126953 -197.1171875 356.04296875 C-176.70111945 377.4413999 -148.02212563 391.24136507 -118.36328125 392.203125 C-98.59639556 392.51241079 -80.59328209 389.67512352 -62 383 C-60.90123535 382.62149902 -60.90123535 382.62149902 -59.78027344 382.23535156 C-36.75507902 374.27336845 -15.89963969 361.32642928 2.92993164 345.99560547 C6.6802534 343 6.6802534 343 10 343 C11.76171875 344.50390625 11.76171875 344.50390625 13.6875 346.5625 C16.1749974 349.20450034 18.72860264 351.64616163 21.48828125 353.99609375 C28.05641608 359.68644182 34.05162506 365.99649619 40.15478516 372.17529297 C47.36348148 379.53981535 47.36348148 379.53981535 54.9765625 386.4765625 C60.95471037 391.56998187 66.35926918 397.29273825 71.875 402.875 C74.11952621 405.14609613 76.36734251 407.41386175 78.6171875 409.6796875 C79.12861298 410.19941132 79.64003845 410.71913513 80.16696167 411.25460815 C82.82300122 413.97015109 82.82300122 413.97015109 86 416 C86 416.66 86 417.32 86 418 C86.8353125 418.3403125 86.8353125 418.3403125 87.6875 418.6875 C90.71572375 420.40622159 92.77323664 422.32788397 95 425 C94.73495042 428.68040276 92.82072734 430.62485637 90.375 433.25 C89.64667969 434.04148437 88.91835938 434.83296875 88.16796875 435.6484375 C87.45253906 436.42445313 86.73710938 437.20046875 86 438 C84.89223038 439.288578 83.78788785 440.5801126 82.6875 441.875 C74.85494252 450.80873336 66.32862693 458.6588302 57 466 C55.90671354 466.88307744 54.8142997 467.76723606 53.72265625 468.65234375 C21.6696829 494.47988901 -16.37006244 513.54638038 -57 521 C-58.1446875 521.21269531 -59.289375 521.42539062 -60.46875 521.64453125 C-91.69118277 526.91142221 -126.00041686 525.89660717 -157 520 C-157.99225586 519.81808105 -158.98451172 519.63616211 -160.00683594 519.44873047 C-205.02220495 511.03372915 -248.29238157 492.9404488 -284 464 C-284.9178125 463.27425781 -285.835625 462.54851562 -286.78125 461.80078125 C-294.1792267 455.88027403 -301.1333845 449.52125319 -308 443 C-309.24136719 441.82244141 -309.24136719 441.82244141 -310.5078125 440.62109375 C-316.15749673 435.11904935 -321.09297121 429.16456485 -326 423 C-326.65742188 422.20980469 -327.31484375 421.41960937 -327.9921875 420.60546875 C-338.3228105 408.09670235 -346.39134993 394.27911067 -354 380 C-354.62777344 378.83984375 -355.25554687 377.6796875 -355.90234375 376.484375 C-361.19440122 366.35626502 -365.16512027 355.74954119 -369 345 C-369.24492187 344.31744141 -369.48984375 343.63488281 -369.7421875 342.93164062 C-385.03247248 299.53421412 -388.75151752 246.24325634 -380 201 C-379.79068848 199.91219238 -379.58137695 198.82438477 -379.36572266 197.70361328 C-373.96308766 170.44573297 -366.12879456 143.6854186 -353.07714844 119.05273438 C-351.92387796 116.85493333 -350.8082568 114.64035015 -349.6953125 112.421875 C-341.30640341 95.8578086 -331.41259099 80.81335663 -319 67 C-318.14019531 66.01902344 -317.28039062 65.03804688 -316.39453125 64.02734375 C-305.95810948 52.32683545 -294.40428709 41.58900873 -282 32 C-281.47035645 31.58717773 -280.94071289 31.17435547 -280.39501953 30.74902344 C-265.76534536 19.4193073 -249.82009734 9.7198623 -233 2 C-231.91041992 1.48856445 -231.91041992 1.48856445 -230.79882812 0.96679688 C-205.26414562 -10.92980541 -178.68888959 -16.84867645 -151 -21 C-150.04077637 -21.14695313 -149.08155273 -21.29390625 -148.09326172 -21.4453125 C-99.02193218 -28.64282368 -45.11830461 -19.79346383 0 0 Z " fill="#B30710" transform="translate(651,260)"/>
<path d="M0 0 C0.7312207 0.31549805 1.46244141 0.63099609 2.21582031 0.95605469 C25.9471648 11.27635547 47.19299611 26.2841264 66.375 43.54248047 C67.87361828 44.8866438 69.38920737 46.21182202 70.90625 47.53515625 C76.04590617 52.04783629 80.61030178 56.76334825 85 62 C86.2475962 63.41878404 87.49758047 64.83547189 88.75 66.25 C89.84575536 67.48912522 90.92963532 68.73887726 92 70 C92.58265625 70.65484375 93.1653125 71.3096875 93.765625 71.984375 C95 74 95 74 94.83911133 75.84350586 C93.70889428 78.74813408 92.02347187 80.33113214 89.80859375 82.51953125 C88.94556641 83.37740234 88.08253906 84.23527344 87.19335938 85.11914062 C85.82920898 86.45235352 85.82920898 86.45235352 84.4375 87.8125 C83.55513672 88.68970703 82.67277344 89.56691406 81.76367188 90.47070312 C77.19044779 94.98984622 72.53848523 99.35736073 67.66430664 103.54956055 C65.67995771 105.27891613 63.82790751 107.10681008 62 109 C59.52561417 111.56275676 56.94703239 113.92697015 54.25 116.25 C49.96185672 119.97433185 45.9753994 123.94695608 42 128 C37.41139791 132.67822323 32.75168282 137.15979144 27.78564453 141.43701172 C25.56412068 143.38152849 23.49319256 145.44439552 21.4375 147.5625 C17.78309745 151.26765814 14.00395043 154.67757305 10 158 C6.61453936 156.52507019 4.3488501 154.60434215 1.6875 152.0625 C-34.61867781 118.94107463 -81.26001407 102.82655 -130 105 C-159.02710251 107.13394345 -186.483863 121.8689782 -207 142 C-207.73476563 142.71027344 -208.46953125 143.42054688 -209.2265625 144.15234375 C-232.3832375 168.08636296 -242.6793175 205.13658433 -243.31640625 237.75 C-243.33718735 238.64871826 -243.35796844 239.54743652 -243.37937927 240.47338867 C-243.44423053 243.31552236 -243.50345696 246.15774033 -243.5625 249 C-243.60574665 250.93881044 -243.64936279 252.87761268 -243.69335938 254.81640625 C-243.79984487 259.54418671 -243.90128947 264.27205107 -244 269 C-253.56538259 257.18393916 -260.54882693 243.20183 -268 230 C-268.44134277 229.21931152 -268.88268555 228.43862305 -269.33740234 227.63427734 C-279.86776264 208.96995372 -289.60983254 189.98661584 -298.74902344 170.60400391 C-299.98485186 168.03153203 -301.27170318 165.49047139 -302.5703125 162.94921875 C-304.56370843 158.98526828 -306.26195177 154.97783342 -307.86962891 150.84472656 C-309.23078326 147.41920378 -310.67907063 144.03363225 -312.13671875 140.6484375 C-317.7279587 127.63475029 -323.30033837 114.62539758 -328.3125 101.375 C-328.67883545 100.41770996 -329.0451709 99.46041992 -329.42260742 98.47412109 C-331.19582149 93.70038198 -332.8847134 89.14306336 -333 84 C-331.76953125 81.62109375 -331.76953125 81.62109375 -329.8125 79.4375 C-328.70648438 78.1690625 -328.70648438 78.1690625 -327.578125 76.875 C-326.72734375 75.92625 -325.8765625 74.9775 -325 74 C-324.0324133 72.8575804 -323.06905292 71.71157131 -322.109375 70.5625 C-314.64018887 61.64778181 -306.84593783 53.29591463 -297.99609375 45.72265625 C-296.67794854 44.58507888 -295.37776146 43.42631396 -294.09765625 42.24609375 C-276.07528889 25.67658518 -255.22786728 12.19485226 -233 2 C-231.86570557 1.46729492 -231.86570557 1.46729492 -230.70849609 0.92382812 C-205.2188725 -10.96823803 -178.64552452 -16.85517806 -151 -21 C-150.04077637 -21.14695313 -149.08155273 -21.29390625 -148.09326172 -21.4453125 C-99.02193218 -28.64282368 -45.11830461 -19.79346383 0 0 Z " fill="#ED0A19" transform="translate(651,260)"/>
<path d="M0 0 C0.82290527 0.00202423 1.64581055 0.00404846 2.49365234 0.00613403 C3.33331543 0.00517731 4.17297852 0.00422058 5.03808594 0.00323486 C6.81689529 0.00255306 8.59570712 0.00440737 10.37451172 0.00857544 C13.10699011 0.01392371 15.83930411 0.00863048 18.57177734 0.00222778 C20.29573604 0.00288856 22.01969464 0.00416973 23.74365234 0.00613403 C24.56655762 0.0041098 25.38946289 0.00208557 26.23730469 0 C32.0037018 0.02399599 32.0037018 0.02399599 33.11865234 1.13894653 C34.45880455 1.29476957 35.80624138 1.38938795 37.15380859 1.45535278 C38.36713867 1.51819458 38.36713867 1.51819458 39.60498047 1.58230591 C40.88018555 1.64128052 40.88018555 1.64128052 42.18115234 1.70144653 C43.03515625 1.74463013 43.88916016 1.78781372 44.76904297 1.83230591 C46.88537272 1.93871355 49.00199047 2.03936384 51.11865234 2.13894653 C51.11865234 2.79894653 51.11865234 3.45894653 51.11865234 4.13894653 C53.03677734 4.07707153 53.03677734 4.07707153 54.99365234 4.01394653 C60.12352491 4.01394653 65.21738043 4.5635377 70.11865234 6.13894653 C70.61365234 7.12894653 70.61365234 7.12894653 71.11865234 8.13894653 C69.83861328 7.97459106 69.83861328 7.97459106 68.53271484 7.80691528 C65.78084046 7.45796626 63.0285272 7.11790033 60.27490234 6.78347778 C56.6642388 6.34200235 53.06368027 5.85029033 49.46240234 5.33816528 C19.51697657 1.25874106 -10.84977051 1.95709405 -40.5390625 7.74636841 C-43.34466656 8.21660098 -46.04289075 8.29237664 -48.88134766 8.13894653 C-48.88134766 7.47894653 -48.88134766 6.81894653 -48.88134766 6.13894653 C-47.92421875 6.04806763 -47.92421875 6.04806763 -46.94775391 5.95535278 C-45.70832031 5.82966919 -45.70832031 5.82966919 -44.44384766 5.70144653 C-43.62013672 5.6202356 -42.79642578 5.53902466 -41.94775391 5.45535278 C-39.8947274 5.34963839 -39.8947274 5.34963839 -38.88134766 4.13894653 C-35.78091992 3.81448317 -32.67927516 3.62560212 -29.56884766 3.42019653 C-26.96538013 3.43286854 -26.96538013 3.43286854 -25.88134766 2.13894653 C-24.47937363 1.994735 -23.07091935 1.91208529 -21.66259766 1.85769653 C-20.81310547 1.82031372 -19.96361328 1.78293091 -19.08837891 1.74441528 C-16.38134766 1.63894653 -16.38134766 1.63894653 -13.67431641 1.53347778 C-12.40007813 1.47740356 -12.40007813 1.47740356 -11.10009766 1.42019653 C-9.92350586 1.37475708 -9.92350586 1.37475708 -8.72314453 1.32839966 C-5.7620333 1.02381027 -3.36880839 0.01401879 0 0 Z " fill="#2D0000" transform="translate(524.88134765625,234.86105346679688)"/>
<path d="M0 0 C-2.49943204 0.48229332 -4.99948243 0.96089426 -7.5 1.4375 C-8.19609375 1.57220703 -8.8921875 1.70691406 -9.609375 1.84570312 C-17.97827814 3.43424493 -25.98763862 4.16163857 -34.5 4.125 C-35.39847656 4.12886719 -36.29695312 4.13273438 -37.22265625 4.13671875 C-42.57326459 4.12893038 -47.70595066 3.77926427 -53 3 C-53 2.67 -53 2.34 -53 2 C-51.41747437 1.96241577 -51.41747437 1.96241577 -49.80297852 1.92407227 C-45.90229372 1.83015891 -42.00179375 1.72989966 -38.10131836 1.62768555 C-36.41060701 1.58427561 -34.71985009 1.54260511 -33.02905273 1.50268555 C-30.60386394 1.44512906 -28.17890585 1.38139351 -25.75390625 1.31640625 C-24.99348526 1.29969376 -24.23306427 1.28298126 -23.44960022 1.26576233 C-19.92917969 1.47908732 -19.92917969 1.47908732 -17 0 C-14.90200836 -0.26334623 -12.79557424 -0.46085629 -10.6875 -0.625 C-9.53636719 -0.72039063 -8.38523437 -0.81578125 -7.19921875 -0.9140625 C-4.47951309 -0.98711931 -2.55318105 -0.8447562 0 0 Z " fill="#370101" transform="translate(573,649)"/>
<path d="M0 0 C0 4.96684233 -3.6468554 7.57420393 -7 11 C-10.0546852 13.92094063 -13.18389683 16.75814301 -16.328125 19.58203125 C-18.2789282 21.3474511 -20.1448762 23.13920304 -22 25 C-23.31963709 26.01800576 -24.65009646 27.02248365 -26 28 C-26.66 27.67 -27.32 27.34 -28 27 C-13.92990791 12.75205562 -13.92990791 12.75205562 -7.6875 7.46484375 C-4.98087516 5.11534302 -2.50199475 2.56454462 0 0 Z " fill="#210000" transform="translate(697,383)"/>
<path d="M0 0 C0.33 0.99 0.66 1.98 1 3 C-0.423125 4.36125 -0.423125 4.36125 -1.875 5.75 C-3.72636386 7.58406139 -4.95252939 8.90505878 -6.125 11.25 C-7.29855629 13.59711258 -8.65833768 13.89804126 -11 15 C-11.639375 15.70125 -12.27875 16.4025 -12.9375 17.125 C-15 19 -15 19 -17.75 19.25 C-18.4925 19.1675 -19.235 19.085 -20 19 C-19.30132813 18.30261719 -18.60265625 17.60523438 -17.8828125 16.88671875 C-15.91233157 14.91693214 -13.95000541 12.93940057 -11.9921875 10.95703125 C-10.95314796 9.90883141 -9.91408523 8.86065455 -8.875 7.8125 C-8.08802734 7.01295898 -8.08802734 7.01295898 -7.28515625 6.19726562 C-4.94986754 3.8471966 -2.76675172 1.84450115 0 0 Z " fill="#260001" transform="translate(726,356)"/>
<path d="M0 0 C0.66 0 1.32 0 2 0 C-0.5842355 8.026918 -3.6415342 15.82103383 -6.77148438 23.6484375 C-8.78142253 28.72193748 -10.63077165 33.71551869 -12 39 C-13.3805087 35.23331402 -12.59568159 32.55210827 -11.5625 28.75 C-11.27503906 27.67234375 -10.98757813 26.5946875 -10.69140625 25.484375 C-10.46324219 24.66453125 -10.23507812 23.8446875 -10 23 C-9.34 23 -8.68 23 -8 23 C-7.896875 22.360625 -7.79375 21.72125 -7.6875 21.0625 C-6.37251255 15.20482864 -4.32014254 9.5326476 -2 4 C-1.34 4 -0.68 4 0 4 C0 2.68 0 1.36 0 0 Z " fill="#2D0000" transform="translate(293,384)"/>
<path d="M0 0 C1.86736816 -0.0009668 1.86736816 -0.0009668 3.77246094 -0.00195312 C12.50755256 0.04818306 20.91442955 0.55215325 29.5 2.1875 C29.5 2.5175 29.5 2.8475 29.5 3.1875 C23.89 3.1875 18.28 3.1875 12.5 3.1875 C12.5 2.5275 12.5 1.8675 12.5 1.1875 C-3.835 1.6825 -3.835 1.6825 -20.5 2.1875 C-20.5 1.8575 -20.5 1.5275 -20.5 1.1875 C-13.6889795 -0.06452583 -6.90904183 -0.00366042 0 0 Z " fill="#360001" transform="translate(534.5,363.8125)"/>
<path d="M0 0 C0.33 0 0.66 0 1 0 C1.33 14.19 1.66 28.38 2 43 C-2 38 -2 38 -1.76977539 35.66918945 C-1.51574951 34.78835693 -1.26172363 33.90752441 -1 33 C-0.85301387 30.42503371 -0.74546333 27.86966263 -0.68359375 25.29296875 C-0.66281265 24.56757401 -0.64203156 23.84217926 -0.62062073 23.09480286 C-0.55557785 20.79245887 -0.49645227 18.49000718 -0.4375 16.1875 C-0.39427165 14.62043186 -0.35065602 13.05337435 -0.30664062 11.48632812 C-0.19994332 7.65766064 -0.09855031 3.8288855 0 0 Z " fill="#E4101F" transform="translate(405,486)"/>
<path d="M0 0 C0.66 0.33 1.32 0.66 2 1 C-0.37878788 5.75757576 -0.37878788 5.75757576 -3.5625 7 C-4.366875 7.33 -5.17125 7.66 -6 8 C-6.68753301 9.65816784 -7.35561283 11.32459336 -8 13 C-8.55429687 13.10054688 -9.10859375 13.20109375 -9.6796875 13.3046875 C-13.82221184 14.54605001 -16.63622929 18.16055059 -19.66601562 21.13867188 C-23.69940817 25 -23.69940817 25 -27 25 C-21.82562301 19.73019393 -16.63735592 14.54522419 -11.02734375 9.73828125 C-8.65925551 7.7078395 -6.32922935 5.63736733 -4 3.5625 C-3.236875 2.88316406 -2.47375 2.20382812 -1.6875 1.50390625 C-1.130625 1.00761719 -0.57375 0.51132812 0 0 Z " fill="#C91D2A" transform="translate(364,296)"/>
<path d="M0 0 C2.14382695 3.77628233 3.20458713 7.84947951 4.375 12 C6.18743098 18.33671012 8.1628529 24.57402311 10.3984375 30.77734375 C11 33 11 33 10 35 C8 32 8 32 8 28 C7.34 28 6.68 28 6 28 C5.85377197 27.45996338 5.70754395 26.91992676 5.55688477 26.36352539 C4.89556445 23.92889078 4.22910312 21.49569321 3.5625 19.0625 C3.33240234 18.21236328 3.10230469 17.36222656 2.86523438 16.48632812 C2.64287109 15.67744141 2.42050781 14.86855469 2.19140625 14.03515625 C1.98717041 13.2862915 1.78293457 12.53742676 1.57250977 11.76586914 C1.14608201 9.99456078 1.14608201 9.99456078 0 9 C-0.07179964 7.48071962 -0.08392007 5.95832518 -0.0625 4.4375 C-0.05347656 3.61121094 -0.04445313 2.78492188 -0.03515625 1.93359375 C-0.02355469 1.29550781 -0.01195312 0.65742187 0 0 Z " fill="#320101" transform="translate(275,581)"/>
<path d="M0 0 C2.64 0.33 5.28 0.66 8 1 C8 1.66 8 2.32 8 3 C12.455 3.99 12.455 3.99 17 5 C17 5.66 17 6.32 17 7 C17.99 7 18.98 7 20 7 C20 7.66 20 8.32 20 9 C20.763125 9.144375 21.52625 9.28875 22.3125 9.4375 C25 10 25 10 28 11 C29.1875 13.0625 29.1875 13.0625 30 15 C25.58592961 13.34044641 21.44590316 11.26045024 17.25 9.125 C11.56294447 6.25290712 5.85817834 3.51064786 0 1 C0 0.67 0 0.34 0 0 Z " fill="#CE1A2A" transform="translate(592,374)"/>
<path d="M0 0 C-1.91460039 1.77311263 -3.83157493 3.54353362 -5.75 5.3125 C-6.55824219 6.06176758 -6.55824219 6.06176758 -7.3828125 6.82617188 C-10.15603952 9.37956993 -12.92190229 11.81096449 -16 14 C-15.51428134 9.62853208 -14.16325079 7.9591701 -11 5 C-11 4.34 -11 3.68 -11 3 C-10.01 2.67 -9.02 2.34 -8 2 C-7.34 1.34 -6.68 0.68 -6 0 C-2.44444444 -1.22222222 -2.44444444 -1.22222222 0 0 Z " fill="#DE1627" transform="translate(455,392)"/>
<path d="M0 0 C3.9773775 2.15914778 7.09939422 4.50221067 10 8 C9.72172184 11.64770024 7.84449866 13.62418328 5.4375 16.25 C4.79683594 16.95640625 4.15617188 17.6628125 3.49609375 18.390625 C3.00238281 18.92171875 2.50867188 19.4528125 2 20 C2 17.66666667 2 15.33333333 2 13 C2.66 12.67 3.32 12.34 4 12 C4.33 11.01 4.66 10.02 5 9 C5.66 9.33 6.32 9.66 7 10 C5.49961812 6.18084612 3.16734582 4.50053617 0 2 C0 1.34 0 0.68 0 0 Z " fill="#AD151B" transform="translate(736,677)"/>
<path d="M0 0 C0.33 1.32 0.66 2.64 1 4 C0.401875 4.350625 -0.19625 4.70125 -0.8125 5.0625 C-3.80464755 7.71268783 -4.59537051 10.27773184 -6 14 C-7.32 14 -8.64 14 -10 14 C-10.66 15.32 -11.32 16.64 -12 18 C-12 14.30390401 -11.09967135 13.51110813 -8.8125 10.6875 C-7.86117188 9.50414062 -7.86117188 9.50414062 -6.890625 8.296875 C-6.26671875 7.53890625 -5.6428125 6.7809375 -5 6 C-4.21882813 5.04867188 -4.21882813 5.04867188 -3.421875 4.078125 C-2.28969872 2.71170535 -1.14623825 1.35464521 0 0 Z " fill="#D31825" transform="translate(331,328)"/>
<path d="M0 0 C0.33 0.66 0.66 1.32 1 2 C0.67 2.66 0.34 3.32 0 4 C0.99 4 1.98 4 3 4 C3 4.66 3 5.32 3 6 C2.01 6.495 2.01 6.495 1 7 C0.67 7.99 0.34 8.98 0 10 C0.66 10 1.32 10 2 10 C2 10.66 2 11.32 2 12 C-0.97 11.505 -0.97 11.505 -4 11 C-4.36630156 7.06225823 -4.30233203 5.43460229 -2 2.125 C-1.34 1.42375 -0.68 0.7225 0 0 Z " fill="#E2101C" transform="translate(336,322)"/>
<path d="M0 0 C0.33 0 0.66 0 1 0 C1 2.31 1 4.62 1 7 C0.34 7 -0.32 7 -1 7 C-1.10957031 7.85722656 -1.21914063 8.71445312 -1.33203125 9.59765625 C-2.20241662 15.87433778 -3.10533931 21.3422541 -6 27 C-7.56243955 23.03380729 -6.37851169 19.66628517 -5.25 15.75 C-5.0653418 15.08411865 -4.88068359 14.4182373 -4.69042969 13.73217773 C-3.36593083 9.04324589 -1.84017992 4.5084408 0 0 Z " fill="#330001" transform="translate(418,441)"/>
<path d="M0 0 C2.58852107 1.24008219 5.17046417 2.49147214 7.75 3.75 C8.47960937 4.09804688 9.20921875 4.44609375 9.9609375 4.8046875 C13.94680779 6.76138746 17.06107184 8.56609446 20 12 C16.4051266 11.42482026 13.75982496 9.74776707 10.68359375 7.921875 C8.82731031 6.90544138 7.09020128 6.33443221 5 6 C5 5.34 5 4.68 5 4 C3.68 4.33 2.36 4.66 1 5 C0.67 3.35 0.34 1.7 0 0 Z " fill="#290000" transform="translate(610,383)"/>
<path d="M0 0 C0.33 0.66 0.66 1.32 1 2 C-0.32880931 4.79749329 -1.38996952 6.59966749 -4 8.3125 C-6 9 -6 9 -9 9 C-10.33981486 9.3062434 -11.67511887 9.63451555 -13 10 C-9.28249221 5.79759989 -4.68339021 3.00217321 0 0 Z " fill="#B01018" transform="translate(648,611)"/>
<path d="M0 0 C0 0.66 0 1.32 0 2 C-0.804375 2.45375 -1.60875 2.9075 -2.4375 3.375 C-5.15236193 4.73420995 -5.15236193 4.73420995 -5.8125 7.1875 C-5.874375 7.785625 -5.93625 8.38375 -6 9 C-7.32 9.33 -8.64 9.66 -10 10 C-10.33 9.34 -10.66 8.68 -11 8 C-12.32 8.33 -13.64 8.66 -15 9 C-11.6214602 5.03388806 -5.46055995 0 0 0 Z " fill="#D71925" transform="translate(406,269)"/>
<path d="M0 0 C0 0.66 0 1.32 0 2 C-0.73605469 2.12117187 -1.47210938 2.24234375 -2.23046875 2.3671875 C-3.20628906 2.53476563 -4.18210937 2.70234375 -5.1875 2.875 C-6.15042969 3.03742188 -7.11335938 3.19984375 -8.10546875 3.3671875 C-11.65111812 4.14234971 -14.76253941 5.3812697 -18 7 C-20.00800456 6.71887936 -22.01014051 6.38932033 -24 6 C-21.36949145 4.24632763 -20.06925023 3.61808596 -17.12890625 2.9296875 C-16.38962891 2.75566406 -15.65035156 2.58164063 -14.88867188 2.40234375 C-14.12103516 2.22832031 -13.35339844 2.05429688 -12.5625 1.875 C-11.4168457 1.60236328 -11.4168457 1.60236328 -10.24804688 1.32421875 C-6.65451323 0.49229538 -3.73619355 0 0 0 Z " fill="#CB1D28" transform="translate(480,243)"/>
<path d="M0 0 C3.96 0 7.92 0 12 0 C12 0.33 12 0.66 12 1 C9.31339217 1.64974205 6.62581326 2.29488418 3.9375 2.9375 C3.18533203 3.11990234 2.43316406 3.30230469 1.65820312 3.49023438 C-2.88379101 4.57166155 -7.36729123 5.41552811 -12 6 C-11.34 5.34 -10.68 4.68 -10 4 C-8.68 4 -7.36 4 -6 4 C-6 3.34 -6 2.68 -6 2 C-4.02 2 -2.04 2 0 2 C0 1.34 0 0.68 0 0 Z " fill="#2F0000" transform="translate(464,243)"/>
<path d="M0 0 C8.64474394 0.6649803 18.06774122 2.26264896 24 9 C15.86184696 6.69356492 7.94317882 3.89571216 0 1 C0 0.67 0 0.34 0 0 Z " fill="#360001" transform="translate(625,250)"/>
<path d="M0 0 C4.52615993 3.67832017 8.39424999 7.41086363 12 12 C11.01 12.33 10.02 12.66 9 13 C8.60167969 12.45730469 8.20335937 11.91460938 7.79296875 11.35546875 C7.26316406 10.64003906 6.73335937 9.92460938 6.1875 9.1875 C5.66542969 8.47980469 5.14335938 7.77210938 4.60546875 7.04296875 C3.06893533 4.99125475 3.06893533 4.99125475 1.30078125 3.36328125 C0 2 0 2 0 0 Z " fill="#AC151E" transform="translate(677,619)"/>
<path d="M0 0 C1.58624235 0.42683239 3.1689098 0.86696158 4.75 1.3125 C6.07257812 1.67794922 6.07257812 1.67794922 7.421875 2.05078125 C10.05772505 3.02125331 11.85407326 4.21005644 14 6 C12.68 6.33 11.36 6.66 10 7 C10 6.34 10 5.68 10 5 C9.01 5.33 8.02 5.66 7 6 C4.8125 5.0625 4.8125 5.0625 3 4 C3 3.34 3 2.68 3 2 C2.01 1.67 1.02 1.34 0 1 C0 0.67 0 0.34 0 0 Z " fill="#D91926" transform="translate(637,255)"/>
<path d="M0 0 C0.66 0 1.32 0 2 0 C2.66 1.32 3.32 2.64 4 4 C1.69 5.98 -0.62 7.96 -3 10 C-2.39009109 6.44219804 -1.4216319 3.3171411 0 0 Z " fill="#B2101A" transform="translate(730,698)"/>
<path d="M0 0 C0.33 1.32 0.66 2.64 1 4 C-1.3125 6.5625 -1.3125 6.5625 -4 9 C-4.99 10.485 -4.99 10.485 -6 12 C-6.99 11.67 -7.98 11.34 -9 11 C-6.03 7.37 -3.06 3.74 0 0 Z " fill="#280001" transform="translate(742,691)"/>
<path d="M0 0 C2.31 0.33 4.62 0.66 7 1 C4.45543849 3.96865509 1.51005335 5.3619751 -2 7 C-1.34 4.69 -0.68 2.38 0 0 Z " fill="#D81520" transform="translate(466,378)"/>
<path d="M0 0 C1.35949488 4.07848463 0.14486103 7.17680945 -0.9375 11.1875 C-1.13279297 11.93708984 -1.32808594 12.68667969 -1.52929688 13.45898438 C-2.01214375 15.30793459 -2.50510633 17.15423776 -3 19 C-3.33 19 -3.66 19 -4 19 C-3.40546697 5.18223235 -3.40546697 5.18223235 0 0 Z " fill="#310000" transform="translate(278,427)"/>
<path d="M0 0 C0.93065133 2.60582371 1.14917407 3.64198224 0.0625 6.25 C-0.4634375 7.11625 -0.4634375 7.11625 -1 8 C-1.66 8 -2.32 8 -3 8 C-3.33 9.98 -3.66 11.96 -4 14 C-4.66 14 -5.32 14 -6 14 C-4.45941767 8.98491285 -2.97068161 4.3852919 0 0 Z " fill="#AE141C" transform="translate(299,377)"/>
<path d="M0 0 C0 0.99 0 1.98 0 3 C-0.5775 3.2475 -1.155 3.495 -1.75 3.75 C-4.12993597 4.91575822 -4.12993597 4.91575822 -5.9375 7.125 C-8 9 -8 9 -10.75 9.25 C-11.4925 9.1675 -12.235 9.085 -13 9 C-9.17814158 4.89504096 -5.01660163 2.41540079 0 0 Z " fill="#160103" transform="translate(719,366)"/>
<path d="M0 0 C0.99 0 1.98 0 3 0 C3.33 1.32 3.66 2.64 4 4 C2.56988027 4.86646667 1.13059381 5.71781829 -0.3125 6.5625 C-1.51326172 7.27599609 -1.51326172 7.27599609 -2.73828125 8.00390625 C-5 9 -5 9 -8 8 C-2.25 5 -2.25 5 0 5 C0 3.35 0 1.7 0 0 Z " fill="#A8131A" transform="translate(655,754)"/>
<path d="M0 0 C3 1 3 1 4.1875 3.0625 C4.455625 3.701875 4.72375 4.34125 5 5 C3.35 6.65 1.7 8.3 0 10 C0 7 0 7 2 4 C1.01 3.67 0.02 3.34 -1 3 C-0.67 2.01 -0.34 1.02 0 0 Z " fill="#DD131F" transform="translate(434,402)"/>
<path d="M0 0 C1.98 0.66 3.96 1.32 6 2 C6 4.31 6 6.62 6 9 C4.02 9.99 4.02 9.99 2 11 C2.66 10.01 3.32 9.02 4 8 C3.67339287 4.62505968 2.11635213 2.57642867 0 0 Z " fill="#210101" transform="translate(741,680)"/>
<path d="M0 0 C2.5625 2.0625 2.5625 2.0625 5 5 C4.8125 8.8125 4.8125 8.8125 4 12 C1.49484216 9.49484216 0.94900914 7.38931835 0 4 C0 2.68 0 1.36 0 0 Z " fill="#2B0001" transform="translate(415,552)"/>
<path d="M0 0 C4 1 4 1 5.3125 2.8125 C6 5 6 5 5 9 C3.35 6.03 1.7 3.06 0 0 Z " fill="#270000" transform="translate(431,588)"/>
<path d="M0 0 C5.75 3.625 5.75 3.625 8 7 C6.35 7 4.7 7 3 7 C3 6.34 3 5.68 3 5 C2.34 5 1.68 5 1 5 C0.67 3.35 0.34 1.7 0 0 Z " fill="#D71827" transform="translate(711,299)"/>
<path d="M0 0 C4.875 1.75 4.875 1.75 6 4 C3.36 4.33 0.72 4.66 -2 5 C-1.34 3.35 -0.68 1.7 0 0 Z " fill="#DB1525" transform="translate(678,275)"/>
<path d="M0 0 C0 0.66 0 1.32 0 2 C-3.96 3.98 -3.96 3.98 -8 6 C-8.66 5.34 -9.32 4.68 -10 4 C-8.71086513 3.32845067 -7.41859796 2.66291141 -6.125 2 C-5.40570312 1.62875 -4.68640625 1.2575 -3.9453125 0.875 C-2 0 -2 0 0 0 Z " fill="#AC141B" transform="translate(615,633)"/>
<path d="M0 0 C3 1 3 1 4.75 4.375 C6 8 6 8 5 11 C4.16151196 9.54462432 3.32936066 8.08559627 2.5 6.625 C1.80390625 5.40683594 1.80390625 5.40683594 1.09375 4.1640625 C0 2 0 2 0 0 Z " fill="#2E0001" transform="translate(422,572)"/>
<path d="M0 0 C2.475 0.495 2.475 0.495 5 1 C4.67 2.65 4.34 4.3 4 6 C2.68 5.34 1.36 4.68 0 4 C0 2.68 0 1.36 0 0 Z " fill="#E10F1B" transform="translate(622,385)"/>
<path d="M0 0 C1.32 0.66 2.64 1.32 4 2 C-0.75 6 -0.75 6 -3 6 C-3 5.01 -3 4.02 -3 3 C-2.01 3 -1.02 3 0 3 C0 2.01 0 1.02 0 0 Z " fill="#D71824" transform="translate(459,384)"/>
<path d="M0 0 C1.32 0.33 2.64 0.66 4 1 C0.535 3.97 0.535 3.97 -3 7 C-3 5.35 -3 3.7 -3 2 C-2.01 1.67 -1.02 1.34 0 1 C0 0.67 0 0.34 0 0 Z " fill="#DA1A2B" transform="translate(733,345)"/>
<path d="M0 0 C0.33 0.99 0.66 1.98 1 3 C-1.97 5.475 -1.97 5.475 -5 8 C-5.33 6.68 -5.66 5.36 -6 4 C-4.68 4 -3.36 4 -2 4 C-1.67 3.01 -1.34 2.02 -1 1 C-0.67 0.67 -0.34 0.34 0 0 Z " fill="#D91A23" transform="translate(745,334)"/>
<path d="M0 0 C1.32 1.32 2.64 2.64 4 4 C3.01 4 2.02 4 1 4 C1 4.66 1 5.32 1 6 C-2 5 -2 5 -4 3 C-2.68 3 -1.36 3 0 3 C0 2.01 0 1.02 0 0 Z " fill="#DF141F" transform="translate(719,306)"/>
<path d="M0 0 C2.88437779 1.29299694 4.87219421 2.65941363 7 5 C4.69 4.67 2.38 4.34 0 4 C0 2.68 0 1.36 0 0 Z " fill="#D21625" transform="translate(697,288)"/>
<path d="M0 0 C4.31392226 0.4793247 6.16569547 1.7457985 9 5 C4.98525763 5 3.18024863 3.33218233 0 1 C0 0.67 0 0.34 0 0 Z " fill="#290000" transform="translate(680,275)"/>
<path d="M0 0 C3.91593446 0.78318689 7.36406635 2.39179858 11 4 C8.21176345 5.0326802 7.1322726 5.04509293 4.25 4.0625 C3.5075 3.711875 2.765 3.36125 2 3 C2 2.34 2 1.68 2 1 C1.34 0.67 0.68 0.34 0 0 Z " fill="#D11926" transform="translate(657,264)"/>
<path d="M0 0 C0.33 1.32 0.66 2.64 1 4 C-3.625 7 -3.625 7 -7 7 C-4.69 4.69 -2.38 2.38 0 0 Z " fill="#200000" transform="translate(726,709)"/>
<path d="M0 0 C2.0625 0.4375 2.0625 0.4375 4 1 C1.03 3.475 1.03 3.475 -2 6 C-1.125 1.125 -1.125 1.125 0 0 Z " fill="#DD1828" transform="translate(716,361)"/>
<path d="M0 0 C-0.25 1.875 -0.25 1.875 -1 4 C-3.58152302 5.72101535 -4.84918025 6 -8 6 C-7.0479279 4.99403703 -6.08812654 3.99538437 -5.125 3 C-4.59132813 2.443125 -4.05765625 1.88625 -3.5078125 1.3125 C-2 0 -2 0 0 0 Z " fill="#DE182C" transform="translate(356,305)"/>
<path d="M0 0 C0.66 0 1.32 0 2 0 C2 0.66 2 1.32 2 2 C2.99 2.33 3.98 2.66 5 3 C3.1875 4.0625 3.1875 4.0625 1 5 C0.01 4.67 -0.98 4.34 -2 4 C-1.34 2.68 -0.68 1.36 0 0 Z " fill="#AF1116" transform="translate(642,761)"/>
<path d="M0 0 C-2.64 1.65 -5.28 3.3 -8 5 C-7.25 2.5625 -7.25 2.5625 -6 0 C-3.40713222 -1.13437965 -2.55267344 -1.27633672 0 0 Z " fill="#B2151F" transform="translate(695,736)"/>
<path d="M0 0 C1.32 0.33 2.64 0.66 4 1 C4 1.66 4 2.32 4 3 C5.32 2.34 6.64 1.68 8 1 C7.67 2.65 7.34 4.3 7 6 C5.68 5.34 4.36 4.68 3 4 C3 3.34 3 2.68 3 2 C2.01 1.67 1.02 1.34 0 1 C0 0.67 0 0.34 0 0 Z " fill="#2D0102" transform="translate(734,674)"/>
<path d="M0 0 C0.66 0 1.32 0 2 0 C1.6875 2.375 1.6875 2.375 1 5 C0.01 5.66 -0.98 6.32 -2 7 C-1.125 1.125 -1.125 1.125 0 0 Z " fill="#E61422" transform="translate(682,392)"/>
</svg>
